<?xml version="1.0" ?><svg viewBox="0 0 512 512" xmlns="http://www.w3.org/2000/svg"><title/><g data-name="/ OUTLINE" id="_OUTLINE"><path d="M256,368a32,32,0,1,0,32,32A32.036,32.036,0,0,0,256,368Zm0,48a16,16,0,1,1,16-16A16.01833,16.01833,0,0,1,256,416Z"/><path d="M447.09375,474.6709a55.68069,55.68069,0,0,0,10.47705-47.73975L432.13623,320.9541a64.195,64.195,0,0,0-49.68164-47.82178L304,257.44141V229.41626l4.79785-1.91919a55.69464,55.69464,0,0,0,34.84473-45.61182l7.79785-2.59912a29.29538,29.29538,0,0,0-2.15967-56.2124L344,121.75366V75.53528a56.27962,56.27962,0,0,0,32-50.566V16H221.311A53.37117,53.37117,0,0,0,168,69.311v52.44262l-5.28125,1.32007a29.29538,29.29538,0,0,0-2.15869,56.2124l7.79742,2.59912a55.69447,55.69447,0,0,0,34.84467,45.61182L208,229.41626v28.02515l-78.45459,15.69091a64.19509,64.19509,0,0,0-49.68164,47.82129L68.57251,368H64a24.0275,24.0275,0,0,0-24,24v8H32v16h8.76007l5.83856,58.38818A24.17307,24.17307,0,0,0,47.86731,480H16v16H496V480H442.29822A56.81781,56.81781,0,0,0,447.09375,474.6709ZM168,164.90063l-2.37988-.79321a13.29541,13.29541,0,0,1,.979-25.51123L168,138.246Zm160-64-37.65283-12.551L328,80.50537Zm17.40039,37.69556a13.29541,13.29541,0,0,1,.98,25.51123L344,164.90088V138.24609ZM184,88V69.311A37.35346,37.35346,0,0,1,221.311,32H359.37158a40.202,40.202,0,0,1-30.69751,32H328v.16138L184,94.16162Zm0,87.50244V110.50513l75.21118-15.66895L328,117.76587v57.73657a39.80864,39.80864,0,0,1-25.14453,37.13916L282.74023,220.688a71.698,71.698,0,0,1-53.48046,0l-20.11524-8.04639A39.80864,39.80864,0,0,1,184,175.50244Zm104,60.29541v23.67261l-7.30469,4.38257a47.91269,47.91269,0,0,1-49.39111,0L224,259.4707V235.79785a87.4128,87.4128,0,0,0,64,0ZM113.48047,472.79639A7.97518,7.97518,0,0,1,105.52,480H70.48a7.97518,7.97518,0,0,1-7.96045-7.20361L56.8399,416h62.3202ZM120,400H56v-8a8.00917,8.00917,0,0,1,8-8h48a8.00917,8.00917,0,0,1,8,8Zm264,80H128.13269a24.17307,24.17307,0,0,0,1.26868-5.61182L135.24005,416H144V400h-8.01886L136,392a23.94322,23.94322,0,0,0-8-17.86914V328a8.00917,8.00917,0,0,1,8-8H376a8.00917,8.00917,0,0,1,8,8Zm-8-176H136a24.0275,24.0275,0,0,0-24,24v40H85.02734l10.395-43.3125a48.14523,48.14523,0,0,1,37.26075-35.86572l81.85345-16.37061,8.53571,5.12158a63.881,63.881,0,0,0,65.855,0l8.53613-5.12158,81.85351,16.37061A48.1451,48.1451,0,0,1,416.57764,324.688l21.11682,87.98694L400,434.2146V328A24.0275,24.0275,0,0,0,376,304Zm27.11719,176H400V452.64258l41.58374-23.76221.42847,1.78516A39.99922,39.99922,0,0,1,403.11719,480Z"/><rect height="16" width="16" x="216" y="120"/><rect height="16" width="16" x="280" y="120"/><path d="M256.94434,184H264V168h-7.05566a6.47218,6.47218,0,0,1-5.17774-10.35547l18.6333-24.84473-12.7998-9.5996-18.6333,24.84423A22.472,22.472,0,0,0,256.94434,184Z"/><path d="M243.57764,192.84473l-7.15528,14.31054a43.98553,43.98553,0,0,0,39.15528,0l-7.15528-14.31054A27.91375,27.91375,0,0,1,243.57764,192.84473Z"/><path d="M408,32a72,72,0,1,1-28.79688,138.0127l-6.40624,14.66113A88.00865,88.00865,0,1,0,408,16a88.65342,88.65342,0,0,0-17.59131,1.75977l3.18262,15.68066A72.56292,72.56292,0,0,1,408,32Z"/><polygon points="416 107.313 416 48 400 48 400 100.687 378.343 122.343 389.657 133.657 416 107.313"/></g></svg>